<svg xmlns="http://www.w3.org/2000/svg" viewBox="0 0 4795 1458" width="4795" height="1458" role="img" aria-label="Univers Parallele">
  <path fill="#1A1917" d="M876.9 698.0Q795.9 698.0 737.5 672.1Q679.1 646.2 648.0 589.2Q616.8 532.3 616.8 439.9V-2.0H812.8V445.5Q812.8 487.3 826.4 513.1Q839.9 538.9 875.3 538.9Q911.3 538.9 925.7 513.1Q940.1 487.3 940.1 445.5V-2.0H1136.1V439.9Q1136.1 532.3 1105.1 589.2Q1074.1 646.2 1016.4 672.1Q958.6 698.0 876.9 698.0Z M1206.1 686.0V-2.0H1386.2L1499.6 218.7Q1504.6 229.3 1512.1 243.1Q1519.5 256.8 1527.1 271.7Q1534.7 286.6 1539.4 299.9L1544.4 299.2Q1544.1 277.8 1544.1 256.6Q1544.1 235.3 1544.1 218.7V-2.0H1728.6V686.0H1548.2L1426.3 455.1Q1416.5 435.1 1409.1 415.6Q1401.7 396.2 1394.7 377.9L1389.7 378.6Q1390.0 398.2 1390.0 418.5Q1390.0 438.8 1390.0 455.1V686.0Z M1802.1 686.0V-2.0H1998.1V686.0Z M2185.8 686.0 2025.3 -2.0H2233.0L2291.2 337.7Q2293.9 354.0 2297.6 379.0Q2301.3 404.0 2305.5 429.7Q2309.7 455.4 2312.4 475.8H2321.1Q2324.5 456.1 2328.2 430.7Q2331.9 405.4 2335.8 380.2Q2339.7 355.0 2342.4 337.7L2400.9 -2.0H2601.9L2441.8 686.0Z M2631.2 686.0V-2.0H3094.6V158.4H2827.2V258.0H3052.4V416.0H2827.2V525.6H3100.3V686.0Z M3151.1 686.0V-2.0H3462.4Q3539.4 -2.0 3585.3 27.0Q3631.2 56.1 3651.6 104.7Q3672.0 153.4 3672.0 212.1Q3672.0 270.2 3654.2 319.1Q3636.3 367.9 3595.8 401.6L3692.0 686.0H3482.8L3416.0 455.0H3347.1V686.0ZM3347.1 307.3H3427.8Q3452.5 307.3 3463.6 283.5Q3474.7 259.7 3474.7 227.0Q3474.7 205.3 3469.6 188.4Q3464.6 171.4 3454.5 160.9Q3444.5 150.4 3427.8 150.4H3347.1Z M3960.7 698.0Q3906.8 698.0 3860.1 688.5Q3813.4 679.0 3777.8 654.8Q3742.2 630.6 3721.9 587.4Q3701.7 544.2 3701.7 476.5Q3701.7 474.5 3701.7 468.4Q3701.7 462.3 3702.7 458.3H3888.6Q3888.3 462.9 3888.3 467.7Q3888.3 472.6 3888.3 476.9Q3888.3 504.2 3896.4 518.3Q3904.4 532.3 3918.4 537.1Q3932.4 542.0 3949.9 542.0Q3958.7 542.0 3966.6 540.5Q3974.5 539.0 3981.4 535.5Q3988.3 532.0 3993.5 526.4Q3998.8 520.7 4001.5 512.5Q4004.2 504.4 4004.2 494.0Q4004.2 475.0 3991.8 462.7Q3979.4 450.4 3958.6 441.1Q3937.8 431.7 3911.7 423.1Q3885.6 414.4 3857.4 404.0Q3829.3 393.5 3803.2 378.1Q3777.0 362.8 3756.2 339.6Q3735.5 316.5 3723.1 283.3Q3710.7 250.1 3710.7 204.0Q3710.7 144.0 3730.4 102.4Q3750.2 60.7 3784.8 35.0Q3819.4 9.3 3863.1 -2.7Q3906.7 -14.7 3954.6 -14.7Q4002.7 -14.7 4045.1 -3.8Q4087.4 7.1 4119.5 30.4Q4151.7 53.8 4170.1 91.8Q4188.5 129.8 4188.8 184.2V207.4H4004.8V198.1Q4004.8 180.8 4000.8 167.7Q3996.7 154.7 3986.7 147.3Q3976.8 139.9 3957.9 139.9Q3941.1 139.9 3930.1 145.3Q3919.2 150.6 3914.4 159.8Q3909.7 169.0 3909.7 181.0Q3909.7 201.3 3922.1 215.3Q3934.5 229.3 3955.6 238.9Q3976.7 248.6 4002.8 257.2Q4029.0 265.8 4056.8 276.0Q4084.6 286.1 4110.7 300.8Q4136.9 315.4 4158.0 337.6Q4179.1 359.8 4191.5 391.5Q4203.9 423.2 4203.9 467.9Q4203.9 546.3 4173.6 597.3Q4143.3 648.3 4088.9 673.2Q4034.6 698.0 3960.7 698.0Z M51.6 1457.8V769.8H362.2Q427.2 769.8 470.2 798.6Q513.1 827.4 534.2 879.4Q555.3 931.4 555.3 1001.1Q555.3 1072.8 533.0 1126.6Q510.8 1180.4 467.5 1210.7Q424.3 1241.0 360.3 1241.0H247.6V1457.8ZM247.6 1087.9H309.9Q336.4 1087.9 347.0 1065.0Q357.6 1042.0 357.6 1005.7Q357.6 981.1 353.4 962.9Q349.2 944.8 338.6 934.8Q328.0 924.9 309.9 924.9H247.6Z M539.4 1457.8 715.4 769.8H971.8L1147.8 1457.8H940.7L921.6 1358.1H758.9L740.4 1457.8ZM788.4 1205.4H893.1L867.9 1066.5Q865.9 1056.5 863.2 1040.8Q860.5 1025.1 857.5 1006.4Q854.5 987.7 851.1 969.2Q847.8 950.7 845.1 936.1H836.4Q833.7 954.7 829.9 978.1Q826.0 1001.4 822.0 1024.6Q817.9 1047.8 813.6 1066.5Z M1172.6 1457.8V769.8H1483.9Q1560.9 769.8 1606.8 798.8Q1652.7 827.8 1673.1 876.5Q1693.5 925.2 1693.5 983.8Q1693.5 1041.9 1675.7 1090.8Q1657.8 1139.7 1617.3 1173.3L1713.5 1457.8H1504.3L1437.5 1226.8H1368.6V1457.8ZM1368.6 1079.0H1449.3Q1474.0 1079.0 1485.1 1055.2Q1496.2 1031.4 1496.2 998.8Q1496.2 977.1 1491.1 960.1Q1486.1 943.1 1476.0 932.6Q1466.0 922.1 1449.3 922.1H1368.6Z M1695.4 1457.8 1871.4 769.8H2127.8L2303.8 1457.8H2096.7L2077.6 1358.1H1914.9L1896.4 1457.8ZM1944.4 1205.4H2049.1L2023.9 1066.5Q2021.9 1056.5 2019.2 1040.8Q2016.5 1025.1 2013.5 1006.4Q2010.5 987.7 2007.1 969.2Q2003.8 950.7 2001.1 936.1H1992.4Q1989.7 954.7 1985.9 978.1Q1982.0 1001.4 1978.0 1024.6Q1973.9 1047.8 1969.6 1066.5Z M2328.6 1457.8V769.8H2524.6V1293.6H2776.3V1457.8Z M2810.6 1457.8V769.8H3006.6V1293.6H3258.3V1457.8Z M3293.7 1457.8V769.8H3757.1V930.1H3489.7V1029.8H3714.9V1187.8H3489.7V1297.4H3762.8V1457.8Z M3813.6 1457.8V769.8H4009.6V1293.6H4261.3V1457.8Z M4296.7 1457.8V769.8H4760.1V930.1H4492.7V1029.8H4717.9V1187.8H4492.7V1297.4H4765.8V1457.8Z"/>
</svg>
